<svg width="23" height="28" viewBox="0 0 23 28" fill="none" xmlns="http://www.w3.org/2000/svg">
<path d="M20.6731 9.91205H17.8801V6.67805C17.8801 3.04505 14.8141 0 11.2021 0C7.59012 0 4.52412 3.06605 4.52412 6.67805V9.91205H1.75212C0.723124 9.91205 -0.095916 10.8151 0.00908395 11.8441L1.29012 25.0951C1.41612 26.4391 2.55012 27.468 3.91512 27.468H18.4681C19.8121 27.468 20.9461 26.4391 21.0931 25.0951L22.4581 11.8441C22.5631 10.8151 21.7441 9.91205 20.7151 9.91205H20.6731ZM7.14912 6.67805C7.14912 4.47305 8.99712 2.62505 11.2021 2.62505C13.4071 2.62505 15.2551 4.47305 15.2551 6.67805V9.91205H7.14912V6.67805Z" fill="#FAFAFA"/>
</svg>
